<svg xmlns="http://www.w3.org/2000/svg" viewBox="0 0 320 64" width="320" height="64">
  <!-- Mark -->
  <rect x="0" y="0" width="64" height="64" rx="14" fill="#0f172a"/>
  <g transform="translate(7 0) skewX(-12)">
    <path d="M19 16h17.5c5.8 0 10.4 3.6 10.4 9.2 0 3.4-1.7 6-4.4 7.4 3.7 1.3 6 4.3 6 8.4 0 6.2-4.9 9.8-11.4 9.8H19V16zm8 13.6h8.4c2.8 0 4.6-1.4 4.6-3.7 0-2.4-1.8-3.7-4.6-3.7H27v7.4zm0 14.4h9.6c3 0 5-1.5 5-4.1 0-2.5-2-4-5-4H27v8.1z" fill="#ffffff"/>
  </g>
  <circle cx="50" cy="50" r="3" fill="#3b82f6"/>

  <!-- Wordmark -->
  <text x="80" y="35" font-family="ui-sans-serif, system-ui, -apple-system, BlinkMacSystemFont, 'Segoe UI', Roboto, sans-serif" font-size="22" font-weight="800" fill="#0f172a" letter-spacing="-0.5">Boriken</text>
  <text x="80" y="52" font-family="ui-sans-serif, system-ui, -apple-system, BlinkMacSystemFont, 'Segoe UI', Roboto, sans-serif" font-size="11" font-weight="500" fill="#64748b" letter-spacing="2">AI CONSULTING</text>
</svg>
